<svg xmlns="http://www.w3.org/2000/svg" width="24" height="24" fill="#ffffff" viewBox="0 0 24 24">
  <path d="M20.447 20.452H17.21v-5.569c0-1.327-.026-3.037-1.852-3.037-1.853 0-2.136 1.447-2.136 2.941v5.665h-3.239V9h3.109v1.561h.045c.433-.82 1.493-1.686 3.073-1.686 3.287 0 3.892 2.164 3.892 4.977v6.6zM5.337 7.433a1.88 1.88 0 1 1 0-3.761 1.88 1.88 0 0 1 0 3.761zM6.766 20.452H3.911V9h2.855v11.452zM22.225 0H1.771C.792 0 0 .77 0 1.723v20.554C0 23.23.792 24 1.771 24h20.451C23.2 24 24 23.23 24 22.277V1.723C24 .77 23.2 0 22.225 0z"/>
</svg>
